<?xml version="1.0" encoding="UTF-8"?>
<svg version="1.1" xmlns="http://www.w3.org/2000/svg" width="1024" height="1024">
<path d="M0 0 C337.92 0 675.84 0 1024 0 C1024 337.92 1024 675.84 1024 1024 C686.08 1024 348.16 1024 0 1024 C0 686.08 0 348.16 0 0 Z " fill="#FDFDFD" transform="translate(0,0)"/>
<path d="M0 0 C21.12 0 42.24 0 64 0 C64 21.12 64 42.24 64 64 C85.12 64 106.24 64 128 64 C128 85.12 128 106.24 128 128 C149.12 128 170.24 128 192 128 C192 106.88 192 85.76 192 64 C213.12 64 234.24 64 256 64 C256 85.12 256 106.24 256 128 C277.12 128 298.24 128 320 128 C320 149.12 320 170.24 320 192 C341.12 192 362.24 192 384 192 C384 170.88 384 149.76 384 128 C405.12 128 426.24 128 448 128 C448 296.96 448 465.92 448 640 C426.88 640 405.76 640 384 640 C384 661.12 384 682.24 384 704 C362.88 704 341.76 704 320 704 C320 682.88 320 661.76 320 640 C298.88 640 277.76 640 256 640 C256 618.88 256 597.76 256 576 C234.88 576 213.76 576 192 576 C192 512.64 192 449.28 192 384 C171.21 384 150.42 384 129 384 C129.309375 392.353125 129.309375 392.353125 129.625 400.875 C129.80951934 414.5728115 129.22588553 424.940889 120.49267578 436.07421875 C118.92694937 438.09424654 117.52238217 440.17557086 116.12109375 442.3125 C97.43494687 470.46863445 72.15722431 493.11601004 43 510 C42.39945801 510.34885254 41.79891602 510.69770508 41.18017578 511.05712891 C20.44406498 522.95594848 -1.52291876 530.67517698 -25 535 C-25.93956543 535.17644043 -26.87913086 535.35288086 -27.84716797 535.53466797 C-83.22016879 545.48150041 -140.85446407 531.64897668 -187 500 C-204.59844548 487.65823304 -220.85365503 473.02998508 -234 456 C-234.41717285 455.46455566 -234.8343457 454.92911133 -235.26416016 454.37744141 C-260 422.43805576 -260 422.43805576 -260 413 C-258.66038208 412.56917114 -258.66038208 412.56917114 -257.29370117 412.12963867 C-253.97582583 411.05780275 -250.66082181 409.97785929 -247.34741211 408.89233398 C-245.9139052 408.4245444 -244.4793369 407.95999424 -243.04370117 407.4987793 C-240.9780657 406.83454415 -238.91655109 406.15868071 -236.85546875 405.48046875 C-235.61434326 405.07723389 -234.37321777 404.67399902 -233.09448242 404.25854492 C-230.25281353 403.10282081 -228.79612656 402.42718761 -227 400 C-226.06750386 397.20251159 -225.86523848 395.45679119 -225.875 392.5625 C-225.87242187 391.80066406 -225.86984375 391.03882813 -225.8671875 390.25390625 C-225.94915575 387.67907285 -225.94915575 387.67907285 -227 384 C-215.45 384 -203.9 384 -192 384 C-192 362.88 -192 341.76 -192 320 C-213.12 320 -234.24 320 -256 320 C-256.06058594 313.09320313 -256.12117188 306.18640625 -256.18359375 299.0703125 C-256.22407091 294.70442058 -256.26483535 290.33853516 -256.30664062 285.97265625 C-256.37302231 279.03729412 -256.43831857 272.1019333 -256.49731445 265.16650391 C-256.54492454 259.57736581 -256.59726611 253.98829052 -256.65294075 248.39922714 C-256.67337953 246.26292349 -256.69209005 244.12660261 -256.70907402 241.99026871 C-256.73308432 239.00663245 -256.76314347 236.02311564 -256.79467773 233.03955078 C-256.8004332 232.14907043 -256.80618866 231.25859009 -256.81211853 230.34112549 C-256.73805327 226.03426974 -256.73805327 226.03426974 -258 222 C-256.86005716 219.39134374 -255.65742203 216.93956459 -254.3125 214.4375 C-253.90966797 213.68388184 -253.50683594 212.93026367 -253.09179688 212.15380859 C-246.15609075 199.51267098 -237.41150403 187.89662209 -228 177 C-227.30777344 176.19691406 -226.61554688 175.39382813 -225.90234375 174.56640625 C-223.64247056 172.00302922 -221.33614349 169.49409029 -219 167 C-218.54173828 166.50773926 -218.08347656 166.01547852 -217.61132812 165.50830078 C-192.47457544 138.72747762 -159.02882711 120.30219274 -124 110 C-123.20674316 109.76055664 -122.41348633 109.52111328 -121.59619141 109.27441406 C-102.56950565 103.59280693 -83.91333422 101.7322007 -64.125 101.6875 C-62.95593109 101.68198624 -62.95593109 101.68198624 -61.76324463 101.67636108 C-14.60108572 101.56022261 33.23735014 118.41795025 70 148 C71.51400391 149.20849609 71.51400391 149.20849609 73.05859375 150.44140625 C86.96567052 161.75792809 99.43817345 174.51200426 110 189 C110.7425 189.99773437 111.485 190.99546875 112.25 192.0234375 C117.13179467 198.8056451 121.38529973 205.89298808 125.5625 213.125 C126.0999585 214.05062744 126.63741699 214.97625488 127.19116211 215.92993164 C127.68624268 216.80125732 128.18132324 217.67258301 128.69140625 218.5703125 C129.13685791 219.35164551 129.58230957 220.13297852 130.04125977 220.93798828 C131 223 131 223 131 226 C128.95833333 226.72916667 126.91666667 227.45833333 124.875 228.1875 C124.24988525 228.41308594 123.62477051 228.63867188 122.98071289 228.87109375 C119.70987983 230.04844648 116.43491095 231.19451059 113.12890625 232.26953125 C111.91074219 232.67558594 110.69257812 233.08164062 109.4375 233.5 C108.32246094 233.8609375 107.20742188 234.221875 106.05859375 234.59375 C102.47309173 236.24225668 100.45605507 237.91533851 98 241 C97.21913996 243.66847507 97.21913996 243.66847507 97.375 246.4375 C97.35566406 247.79681641 97.35566406 247.79681641 97.3359375 249.18359375 C98.84393401 255.57927307 104.4845209 259.42448578 109.5 263.1875 C114.35213356 266.9100805 119.10351599 270.71084824 123.75 274.6875 C128.28975592 278.56580301 132.88935291 282.35079047 137.56640625 286.0625 C143.47129715 290.76366515 149.28912672 295.57353052 155.08984375 300.40234375 C158.71858694 303.42014783 162.36499372 306.41516582 166.02734375 309.39208984 C167.2536145 310.39162192 168.47577308 311.39624865 169.69140625 312.40869141 C176.03529335 317.75781291 176.03529335 317.75781291 183.875 319.75 C187.97781821 319.30308587 190.30838138 318.2457754 193 315 C193.75723747 313.22235831 193.75723747 313.22235831 194.3671875 311.1875 C194.62322754 310.38449463 194.87926758 309.58148926 195.14306641 308.75415039 C195.56724854 307.39084595 195.56724854 307.39084595 196 306 C196.3201709 304.9886499 196.6403418 303.9772998 196.97021484 302.93530273 C198.07307555 299.43896129 199.16341993 295.93893461 200.25 292.4375 C200.44730713 291.80206268 200.64461426 291.16662537 200.84790039 290.51193237 C203.7658365 281.10475628 206.58956598 271.6734508 209.32397461 262.21118164 C211.77084841 253.75081643 214.28272377 245.31086016 216.8125 236.875 C217.00763184 236.22298615 217.20276367 235.57097229 217.40380859 234.89920044 C217.96216369 233.0340474 218.52207123 231.16935933 219.08203125 229.3046875 C219.56506714 227.6956958 219.56506714 227.6956958 220.05786133 226.05419922 C220.70998984 223.94014696 221.39244714 221.8353013 222.09887695 219.73876953 C223.31765228 216.03456426 223.63677193 212.85131936 223 209 C220.98497111 205.24787724 219.54533858 203.36355905 216 201 C209.76911414 200.07518745 204.38265613 201.50059072 198.625 203.75 C197.894021 204.02150879 197.16304199 204.29301758 196.40991211 204.57275391 C194.26848708 205.36974955 192.13423333 206.18398466 190 207 C187.85575265 207.79595233 185.71018302 208.58836511 183.5625 209.375 C182.71816406 209.69210937 181.87382813 210.00921875 181.00390625 210.3359375 C179 211 179 211 177 211 C176.5153125 210.01902344 176.030625 209.03804687 175.53125 208.02734375 C173.37381602 203.674941 171.19231146 199.33492797 169 195 C168.6690332 194.34386719 168.33806641 193.68773437 167.99707031 193.01171875 C152.61461883 162.71722715 129.78242821 134.89112965 103 114 C102.28714844 113.39671875 101.57429688 112.7934375 100.83984375 112.171875 C71.1790896 87.2714888 36.50557281 73.35728932 0 62 C0 41.54 0 21.08 0 0 Z " fill="#FCFCFC" transform="translate(576,192)"/>
<path d="M0 0 C21.12 0 42.24 0 64 0 C64 21.12 64 42.24 64 64 C85.12 64 106.24 64 128 64 C128 84.46 128 104.92 128 126 C130.31 126.33 132.62 126.66 135 127 C139.62545591 128.30932884 144.1480279 129.92003246 148.6875 131.5 C149.33038971 131.72308838 149.97327942 131.94617676 150.63565063 132.17602539 C174.8923972 140.62650556 197.23063713 151.84966967 218 167 C218.84788086 167.6182666 218.84788086 167.6182666 219.71289062 168.24902344 C238.31964257 181.94474061 255.86588814 197.67621955 270 216 C271.00294676 217.25207127 272.00692896 218.50331354 273.01171875 219.75390625 C285.91130536 235.99289146 298.82204914 254.99811949 305 275 C305.74121094 274.70867187 306.48242188 274.41734375 307.24609375 274.1171875 C310.14496425 272.98886336 313.0491874 271.87601768 315.95849609 270.77490234 C317.35357309 270.24536702 318.7470658 269.71164386 320.13916016 269.17431641 C322.3372966 268.33000882 324.54252696 267.50704677 326.75 266.6875 C327.77565063 266.28797119 327.77565063 266.28797119 328.82202148 265.88037109 C333.81354988 264.05841837 338.69111698 263.17191462 344 264 C347.12728292 265.66992464 349.23381014 267.99002246 351.375 270.8125 C352.82162424 275.87568484 352.38943741 280.31496429 350.6484375 285.1796875 C349.01904978 289.88771734 347.64982754 294.63967958 346.3125 299.4375 C343.73743634 308.55999969 340.98974759 317.62163387 338.18408203 326.67553711 C335.47217861 335.43672439 332.81760057 344.21399757 330.1875 353 C329.81455811 354.24579834 329.44161621 355.49159668 329.05737305 356.77514648 C328.70199463 357.96309814 328.34661621 359.1510498 327.98046875 360.375 C327.64120361 361.50365479 327.30193848 362.63230957 326.95239258 363.79516602 C326.34207791 365.84889598 325.74437171 367.90644046 325.1628418 369.96850586 C324.91058838 370.85417236 324.65833496 371.73983887 324.3984375 372.65234375 C324.18751465 373.41281006 323.9765918 374.17327637 323.75927734 374.95678711 C322.30986616 378.85714795 319.76629913 382.11685043 316 384 C309.95708608 384.86327342 306.80625689 384.31802452 301.8125 380.75 C296.8884693 376.86152451 292.13728499 372.75337292 287.40356445 368.63574219 C283.3630206 365.12680553 279.23215278 361.77447775 275 358.5 C269.50998943 354.24753284 264.21504056 349.81089236 258.96435547 345.26733398 C254.07803078 341.04483003 249.06134547 337.0107436 244 333 C241.18056806 330.75854805 238.36983606 328.50657718 235.5625 326.25 C234.86334473 325.69449463 234.16418945 325.13898926 233.44384766 324.56665039 C225.36832763 318.0595653 225.36832763 318.0595653 224.53125 313.37890625 C224.44757337 305.83755005 224.44757337 305.83755005 226.9375 302.0625 C234.97456469 296.64978297 249.20311086 290 259 290 C234.10790379 237.77407607 190.79515747 199.01657955 136.57421875 179.109375 C127.47412987 175.9100071 118.20077772 173.44557324 108.8125 171.25 C107.97082275 171.05116211 107.12914551 170.85232422 106.26196289 170.64746094 C92.17822783 167.50906914 78.24800653 166.61971156 63.875 166.6875 C62.66460052 166.69023422 62.66460052 166.69023422 61.42974854 166.69302368 C41.53436534 166.76842033 23.08407319 169.33829347 4 175 C3.28054199 175.20915039 2.56108398 175.41830078 1.81982422 175.63378906 C-40.66682458 188.04474613 -80.41623152 214.48950411 -106.74853516 250.29980469 C-107.99732441 251.99636504 -109.26887103 253.67395975 -110.54296875 255.3515625 C-115.40760626 261.85618671 -119.65235843 268.60204692 -123.625 275.6875 C-124.28254272 276.85587402 -124.28254272 276.85587402 -124.95336914 278.04785156 C-125.55266235 279.14371582 -125.55266235 279.14371582 -126.1640625 280.26171875 C-126.51936035 280.91100342 -126.8746582 281.56028809 -127.24072266 282.22924805 C-128.19704376 284.13842448 -128.19704376 284.13842448 -128 287 C-128 319.33333333 -128 351.66666667 -128 384 C-106.88 384 -85.76 384 -64 384 C-64 405.12 -64 426.24 -64 448 C-75.55 448 -87.1 448 -99 448 C-98.34 449.32 -97.68 450.64 -97 452 C-96.41439546 456.25133689 -96.53303727 459.92598573 -98.25 463.875 C-101.44678471 467.75681001 -104.76762876 469.4667043 -109.5 471.04296875 C-110.551875 471.39423828 -111.60375 471.74550781 -112.6875 472.10742188 C-113.780625 472.46384766 -114.87375 472.82027344 -116 473.1875 C-117.6396875 473.73954102 -117.6396875 473.73954102 -119.3125 474.30273438 C-127.47935993 477 -127.47935993 477 -132 477 C-104.93925691 530.98481576 -60.00956959 572.07158417 -2.30322266 591.25488281 C31.41345723 602.16258972 68.14549886 604.51160988 103 598 C104.5152124 597.72591309 104.5152124 597.72591309 106.06103516 597.44628906 C148.89553681 589.4283971 185.61882176 567.57411601 217 538 C217.7321875 537.31035156 218.464375 536.62070312 219.21875 535.91015625 C231.50263376 523.99186427 241.37475643 509.73993013 250.0625 495.0625 C250.53993652 494.26972656 251.01737305 493.47695313 251.50927734 492.66015625 C252.1717749 491.51546875 252.1717749 491.51546875 252.84765625 490.34765625 C253.23961182 489.67742432 253.63156738 489.00719238 254.03540039 488.31665039 C258.45263721 477.7079032 256.81447369 453.75131562 257 448 C277.79 448 298.58 448 320 448 C320 511.36 320 574.72 320 640 C341.12 640 362.24 640 384 640 C384 661.12 384 682.24 384 704 C405.12 704 426.24 704 448 704 C448 725.12 448 746.24 448 768 C469.12 768 490.24 768 512 768 C512 746.88 512 725.76 512 704 C533.12 704 554.24 704 576 704 C576 767.36 576 830.72 576 896 C428.16 896 280.32 896 128 896 C128 874.88 128 853.76 128 832 C106.88 832 85.76 832 64 832 C64 810.88 64 789.76 64 768 C42.88 768 21.76 768 0 768 C0 746.88 0 725.76 0 704 C-21.12 704 -42.24 704 -64 704 C-64 682.88 -64 661.76 -64 640 C-85.12 640 -106.24 640 -128 640 C-128 618.88 -128 597.76 -128 576 C-149.12 576 -170.24 576 -192 576 C-192 555.21 -192 534.42 -192 513 C-184.41 513 -176.82 513 -169 513 C-171.92546399 505.66039515 -171.92546399 505.66039515 -175.25 498.5 C-177 495 -177 495 -177 493 C-177.49886719 493.24234375 -177.99773437 493.4846875 -178.51171875 493.734375 C-184.20834546 496.39348262 -189.96745914 498.28340633 -195.99609375 500.05078125 C-198.38635351 500.8060909 -200.46213956 501.62942843 -202.6875 502.75 C-207.21815677 504.4596818 -211.22609934 504.97005661 -216 504 C-219.42674398 501.9736975 -222.20753513 499.58492974 -224 496 C-224.203125 494.15234375 -224.203125 494.15234375 -224.25 491.9375 C-224.27578125 491.22464844 -224.3015625 490.51179688 -224.328125 489.77734375 C-223.94904088 486.56866746 -223.01689236 483.84941008 -221.95361328 480.80737305 C-220.80116836 477.41465309 -219.76429935 473.99106441 -218.73828125 470.55859375 C-218.38032471 469.36290771 -218.02236816 468.16722168 -217.65356445 466.93530273 C-217.21101318 465.45102783 -216.76846191 463.96675293 -216.3125 462.4375 C-214.889375 457.673125 -213.46625 452.90875 -212 448 C-226.52 448 -241.04 448 -256 448 C-256 426.88 -256 405.76 -256 384 C-234.88 383.67 -213.76 383.34 -192 383 C-192 362.21 -192 341.42 -192 320 C-213.12 320 -234.24 320 -256 320 C-256 298.88 -256 277.76 -256 256 C-234.88 256 -213.76 256 -192 256 C-192 234.88 -192 213.76 -192 192 C-170.88 192 -149.76 192 -128 192 C-128 170.88 -128 149.76 -128 128 C-106.88 128 -85.76 128 -64 128 C-64 106.88 -64 85.76 -64 64 C-42.88 64 -21.76 64 0 64 C0 42.88 0 21.76 0 0 Z " fill="#F7F7F7" transform="translate(448,128)"/>
<path d="M0 0 C21.12 0 42.24 0 64 0 C64 21.12 64 42.24 64 64 C85.12 64 106.24 64 128 64 C128 84.46 128 104.92 128 126 C130.31 126.33 132.62 126.66 135 127 C139.62545591 128.30932884 144.1480279 129.92003246 148.6875 131.5 C149.33038971 131.72308838 149.97327942 131.94617676 150.63565063 132.17602539 C174.8923972 140.62650556 197.23063713 151.84966967 218 167 C218.84788086 167.6182666 218.84788086 167.6182666 219.71289062 168.24902344 C238.31964257 181.94474061 255.86588814 197.67621955 270 216 C271.00294676 217.25207127 272.00692896 218.50331354 273.01171875 219.75390625 C285.91130536 235.99289146 298.82204914 254.99811949 305 275 C305.74121094 274.70867187 306.48242188 274.41734375 307.24609375 274.1171875 C310.14496425 272.98886336 313.0491874 271.87601768 315.95849609 270.77490234 C317.35357309 270.24536702 318.7470658 269.71164386 320.13916016 269.17431641 C322.3372966 268.33000882 324.54252696 267.50704677 326.75 266.6875 C327.77565063 266.28797119 327.77565063 266.28797119 328.82202148 265.88037109 C333.81354988 264.05841837 338.69111698 263.17191462 344 264 C347.12728292 265.66992464 349.23381014 267.99002246 351.375 270.8125 C352.82162424 275.87568484 352.38943741 280.31496429 350.6484375 285.1796875 C349.01904978 289.88771734 347.64982754 294.63967958 346.3125 299.4375 C343.73743634 308.55999969 340.98974759 317.62163387 338.18408203 326.67553711 C335.47217861 335.43672439 332.81760057 344.21399757 330.1875 353 C329.81455811 354.24579834 329.44161621 355.49159668 329.05737305 356.77514648 C328.70199463 357.96309814 328.34661621 359.1510498 327.98046875 360.375 C327.64120361 361.50365479 327.30193848 362.63230957 326.95239258 363.79516602 C326.34207791 365.84889598 325.74437171 367.90644046 325.1628418 369.96850586 C324.91058838 370.85417236 324.65833496 371.73983887 324.3984375 372.65234375 C324.18751465 373.41281006 323.9765918 374.17327637 323.75927734 374.95678711 C322.30986616 378.85714795 319.76629913 382.11685043 316 384 C309.95708608 384.86327342 306.80625689 384.31802452 301.8125 380.75 C296.8884693 376.86152451 292.13728499 372.75337292 287.40356445 368.63574219 C283.3630206 365.12680553 279.23215278 361.77447775 275 358.5 C269.50998943 354.24753284 264.21504056 349.81089236 258.96435547 345.26733398 C254.07803078 341.04483003 249.06134547 337.0107436 244 333 C241.18056806 330.75854805 238.36983606 328.50657718 235.5625 326.25 C234.86334473 325.69449463 234.16418945 325.13898926 233.44384766 324.56665039 C225.36832763 318.0595653 225.36832763 318.0595653 224.53125 313.37890625 C224.44757337 305.83755005 224.44757337 305.83755005 226.9375 302.0625 C234.97456469 296.64978297 249.20311086 290 259 290 C234.10790379 237.77407607 190.79515747 199.01657955 136.57421875 179.109375 C127.47412987 175.9100071 118.20077772 173.44557324 108.8125 171.25 C107.97082275 171.05116211 107.12914551 170.85232422 106.26196289 170.64746094 C92.17822783 167.50906914 78.24800653 166.61971156 63.875 166.6875 C62.66460052 166.69023422 62.66460052 166.69023422 61.42974854 166.69302368 C41.53436534 166.76842033 23.08407319 169.33829347 4 175 C3.28054199 175.20915039 2.56108398 175.41830078 1.81982422 175.63378906 C-40.66682458 188.04474613 -80.41623152 214.48950411 -106.74853516 250.29980469 C-107.99732441 251.99636504 -109.26887103 253.67395975 -110.54296875 255.3515625 C-115.40760626 261.85618671 -119.65235843 268.60204692 -123.625 275.6875 C-124.28254272 276.85587402 -124.28254272 276.85587402 -124.95336914 278.04785156 C-125.55266235 279.14371582 -125.55266235 279.14371582 -126.1640625 280.26171875 C-126.51936035 280.91100342 -126.8746582 281.56028809 -127.24072266 282.22924805 C-128.19704376 284.13842448 -128.19704376 284.13842448 -128 287 C-128 319.33333333 -128 351.66666667 -128 384 C-106.88 384 -85.76 384 -64 384 C-64 405.12 -64 426.24 -64 448 C-75.55 448 -87.1 448 -99 448 C-98.34 449.32 -97.68 450.64 -97 452 C-96.41439546 456.25133689 -96.53303727 459.92598573 -98.25 463.875 C-101.44678471 467.75681001 -104.76762876 469.4667043 -109.5 471.04296875 C-110.551875 471.39423828 -111.60375 471.74550781 -112.6875 472.10742188 C-113.780625 472.46384766 -114.87375 472.82027344 -116 473.1875 C-117.6396875 473.73954102 -117.6396875 473.73954102 -119.3125 474.30273438 C-127.47935993 477 -127.47935993 477 -132 477 C-104.93925691 530.98481576 -60.00956959 572.07158417 -2.30322266 591.25488281 C31.41345723 602.16258972 68.14549886 604.51160988 103 598 C104.5152124 597.72591309 104.5152124 597.72591309 106.06103516 597.44628906 C148.89553681 589.4283971 185.61882176 567.57411601 217 538 C217.7321875 537.31035156 218.464375 536.62070312 219.21875 535.91015625 C235.623562 519.9935827 248.06839235 500.07852214 258.125 479.6875 C261.29673412 473.72426889 266.11085425 470.94457288 272 468 C282.10956386 467.19070421 288.96658126 467.76735242 296.75 474.3125 C301.63972077 480.1529998 304.62790747 486.17292729 304.52734375 493.8828125 C303.35509634 500.81209718 299.41347082 506.94419873 296 513 C295.61489258 513.69577148 295.22978516 514.39154297 294.83300781 515.10839844 C286.33974551 530.38491785 276.42504129 544.76212928 265 558 C264.34257813 558.76828125 263.68515625 559.5365625 263.0078125 560.328125 C252.28412996 572.54907643 240.83039258 584.04332179 227.73876953 593.70996094 C225.97512385 595.01845627 224.23498409 596.35414451 222.49609375 597.6953125 C166.60411667 640.32530209 95.21947936 656.53216158 26 648 C-23.71768536 641.20216232 -70.64667516 619.41000773 -108.37768555 586.41748047 C-109.54124589 585.40083165 -110.70999872 584.39011396 -111.88208008 583.38330078 C-123.21144722 573.60066614 -133.95482889 562.94362374 -143 551 C-143.40460449 550.47712402 -143.80920898 549.95424805 -144.22607422 549.41552734 C-177 506.97544559 -177 506.97544559 -177 493 C-177.49886719 493.24234375 -177.99773437 493.4846875 -178.51171875 493.734375 C-184.20834546 496.39348262 -189.96745914 498.28340633 -195.99609375 500.05078125 C-198.38635351 500.8060909 -200.46213956 501.62942843 -202.6875 502.75 C-207.21815677 504.4596818 -211.22609934 504.97005661 -216 504 C-219.42674398 501.9736975 -222.20753513 499.58492974 -224 496 C-224.203125 494.15234375 -224.203125 494.15234375 -224.25 491.9375 C-224.27578125 491.22464844 -224.3015625 490.51179688 -224.328125 489.77734375 C-223.94904088 486.56866746 -223.01689236 483.84941008 -221.95361328 480.80737305 C-220.80116836 477.41465309 -219.76429935 473.99106441 -218.73828125 470.55859375 C-218.38032471 469.36290771 -218.02236816 468.16722168 -217.65356445 466.93530273 C-217.21101318 465.45102783 -216.76846191 463.96675293 -216.3125 462.4375 C-214.889375 457.673125 -213.46625 452.90875 -212 448 C-226.52 448 -241.04 448 -256 448 C-256 426.88 -256 405.76 -256 384 C-234.88 383.67 -213.76 383.34 -192 383 C-192 362.21 -192 341.42 -192 320 C-213.12 320 -234.24 320 -256 320 C-256 298.88 -256 277.76 -256 256 C-234.88 256 -213.76 256 -192 256 C-192 234.88 -192 213.76 -192 192 C-170.88 192 -149.76 192 -128 192 C-128 170.88 -128 149.76 -128 128 C-106.88 128 -85.76 128 -64 128 C-64 106.88 -64 85.76 -64 64 C-42.88 64 -21.76 64 0 64 C0 42.88 0 21.76 0 0 Z " fill="#EEEFEE" transform="translate(448,128)"/>
<path d="M0 0 C0.78763733 -0.00100708 1.57527466 -0.00201416 2.38677979 -0.00305176 C14.7634763 0.00758571 26.78559723 0.69048081 39.00146484 2.81884766 C41.52356885 3.24344591 44.04601862 3.58782817 46.58203125 3.91796875 C71.43867213 7.44351482 97.2918468 16.77815248 119.5625 28.25 C120.69993652 28.83297852 120.69993652 28.83297852 121.86035156 29.42773438 C132.99903866 35.21370233 143.42707375 41.85665545 153.5625 49.25 C154.12775391 49.66217773 154.69300781 50.07435547 155.27539062 50.49902344 C173.88214257 64.19474061 191.42838814 79.92621955 205.5625 98.25 C206.56544676 99.50207127 207.56942896 100.75331354 208.57421875 102.00390625 C221.47380536 118.24289146 234.38454914 137.24811949 240.5625 157.25 C241.30371094 156.95867187 242.04492188 156.66734375 242.80859375 156.3671875 C245.70746425 155.23886336 248.6116874 154.12601768 251.52099609 153.02490234 C252.91607309 152.49536702 254.3095658 151.96164386 255.70166016 151.42431641 C257.8997966 150.58000882 260.10502696 149.75704677 262.3125 148.9375 C263.33815063 148.53797119 263.33815063 148.53797119 264.38452148 148.13037109 C269.37604988 146.30841837 274.25361698 145.42191462 279.5625 146.25 C282.68978292 147.91992464 284.79631014 150.24002246 286.9375 153.0625 C288.38412424 158.12568484 287.95193741 162.56496429 286.2109375 167.4296875 C284.58154978 172.13771734 283.21232754 176.88967958 281.875 181.6875 C279.29993634 190.80999969 276.55224759 199.87163387 273.74658203 208.92553711 C271.03467861 217.68672439 268.38010057 226.46399757 265.75 235.25 C265.37705811 236.49579834 265.00411621 237.74159668 264.61987305 239.02514648 C264.26449463 240.21309814 263.90911621 241.4010498 263.54296875 242.625 C263.20370361 243.75365479 262.86443848 244.88230957 262.51489258 246.04516602 C261.90457791 248.09889598 261.30687171 250.15644046 260.7253418 252.21850586 C260.34696167 253.54700562 260.34696167 253.54700562 259.9609375 254.90234375 C259.75001465 255.66281006 259.5390918 256.42327637 259.32177734 257.20678711 C257.87236616 261.10714795 255.32879913 264.36685043 251.5625 266.25 C245.51958608 267.11327342 242.36875689 266.56802452 237.375 263 C232.4509693 259.11152451 227.69978499 255.00337292 222.96606445 250.88574219 C218.9255206 247.37680553 214.79465278 244.02447775 210.5625 240.75 C205.07248943 236.49753284 199.77754056 232.06089236 194.52685547 227.51733398 C189.64053078 223.29483003 184.62384547 219.2607436 179.5625 215.25 C176.74306806 213.00854805 173.93233606 210.75657718 171.125 208.5 C170.42584473 207.94449463 169.72668945 207.38898926 169.00634766 206.81665039 C160.93082763 200.3095653 160.93082763 200.3095653 160.09375 195.62890625 C160.01007337 188.08755005 160.01007337 188.08755005 162.5 184.3125 C170.53706469 178.89978297 184.76561086 172.25 194.5625 172.25 C169.67040379 120.02407607 126.35765747 81.26657955 72.13671875 61.359375 C63.03662987 58.1600071 53.76327772 55.69557324 44.375 53.5 C43.53332275 53.30116211 42.69164551 53.10232422 41.82446289 52.89746094 C27.74072783 49.75906914 13.81050653 48.86971156 -0.5625 48.9375 C-1.77289948 48.94023422 -1.77289948 48.94023422 -3.00775146 48.94302368 C-22.90313466 49.01842033 -41.35342681 51.58829347 -60.4375 57.25 C-61.51668701 57.56372559 -61.51668701 57.56372559 -62.61767578 57.88378906 C-105.10432458 70.29474613 -144.85373152 96.73950411 -171.18603516 132.54980469 C-172.43482441 134.24636504 -173.70637103 135.92395975 -174.98046875 137.6015625 C-180.77700315 145.35413368 -185.5391965 153.50001167 -190.11328125 162.0234375 C-196.69440966 174.15621281 -196.69440966 174.15621281 -200.875 177.625 C-201.40996094 178.08648437 -201.94492187 178.54796875 -202.49609375 179.0234375 C-208.8759512 183.05417238 -216.15280222 183.09624633 -223.4375 182.25 C-230.95328232 179.68605083 -234.92677959 174.97279234 -239.25 168.5625 C-242.15952008 160.44647032 -240.69500075 153.26035176 -237.16796875 145.59375 C-225.03226735 122.14417799 -209.76342257 100.26228672 -191.4375 81.25 C-190.85419922 80.64478516 -190.27089844 80.03957031 -189.66992188 79.41601562 C-181.98692673 71.49267653 -174.2124998 63.97278211 -165.4375 57.25 C-164.2602685 56.32050013 -163.0831953 55.39079973 -161.90625 54.4609375 C-151.62846569 46.44468503 -140.78259228 39.64946769 -129.4375 33.25 C-128.59026367 32.77143555 -127.74302734 32.29287109 -126.87011719 31.79980469 C-87.78996375 9.9762093 -44.6104812 0.04006541 0 0 Z " fill="#2C875B" transform="translate(512.4375,245.75)"/>
<path d="M0 0 C3.03869542 1.57940098 5.44144339 3.74189774 8 6 C9.64300303 7.33681943 11.28909903 8.66984235 12.9375 10 C14.39266521 11.19884623 15.84772662 12.39782014 17.30126953 13.59863281 C19.20708781 15.17083703 21.11704579 16.73792964 23.02734375 18.3046875 C29.57654537 23.6805091 36.11153338 29.06899584 42.5625 34.5625 C51.22921088 41.93362257 60.02720821 49.16287736 69.0234375 56.12890625 C69.661604 56.62390625 70.29977051 57.11890625 70.95727539 57.62890625 C72.15837816 58.5570383 73.36308228 59.48053611 74.57202148 60.3984375 C81.60297466 65.82414543 81.60297466 65.82414543 82.3984375 70.18359375 C82.34903483 74.93448349 82.14093492 78.1860076 79 82 C76.01855809 84.54156379 73.20479515 85.8089707 69.5 87.04296875 C67.9221875 87.56987305 67.9221875 87.56987305 66.3125 88.10742188 C65.219375 88.46384766 64.12625 88.82027344 63 89.1875 C61.906875 89.55552734 60.81375 89.92355469 59.6875 90.30273438 C51.52064007 93 51.52064007 93 47 93 C74.06074309 146.98481576 118.99043041 188.07158417 176.69677734 207.25488281 C210.41345723 218.16258972 247.14549886 220.51160988 282 214 C283.0101416 213.81727539 284.0202832 213.63455078 285.06103516 213.44628906 C327.89553681 205.4283971 364.61882176 183.57411601 396 154 C396.7321875 153.31035156 397.464375 152.62070312 398.21875 151.91015625 C414.623562 135.9935827 427.06839235 116.07852214 437.125 95.6875 C440.29673412 89.72426889 445.11085425 86.94457288 451 84 C461.10956386 83.19070421 467.96658126 83.76735242 475.75 90.3125 C480.63972077 96.1529998 483.62790747 102.17292729 483.52734375 109.8828125 C482.35509634 116.81209718 478.41347082 122.94419873 475 129 C474.61489258 129.69577148 474.22978516 130.39154297 473.83300781 131.10839844 C465.33974551 146.38491785 455.42504129 160.76212928 444 174 C443.01386719 175.15242188 443.01386719 175.15242188 442.0078125 176.328125 C431.28412996 188.54907643 419.83039258 200.04332179 406.73876953 209.70996094 C404.97512385 211.01845627 403.23498409 212.35414451 401.49609375 213.6953125 C345.60411667 256.32530209 274.21947936 272.53216158 205 264 C155.28231464 257.20216232 108.35332484 235.41000773 70.62231445 202.41748047 C69.45875411 201.40083165 68.29000128 200.39011396 67.11791992 199.38330078 C55.78855278 189.60066614 45.04517111 178.94362374 36 167 C35.59539551 166.47712402 35.19079102 165.95424805 34.77392578 165.41552734 C2 122.97544559 2 122.97544559 2 109 C1.50113281 109.24234375 1.00226563 109.4846875 0.48828125 109.734375 C-5.20834546 112.39348262 -10.96745914 114.28340633 -16.99609375 116.05078125 C-19.38635351 116.8060909 -21.46213956 117.62942843 -23.6875 118.75 C-28.21815677 120.4596818 -32.22609934 120.97005661 -37 120 C-40.42674398 117.9736975 -43.20753513 115.58492974 -45 112 C-45.203125 110.15234375 -45.203125 110.15234375 -45.25 107.9375 C-45.28867188 106.86822266 -45.28867188 106.86822266 -45.328125 105.77734375 C-44.95485248 102.61785851 -43.9998909 99.821356 -42.95410156 96.8269043 C-41.80379337 93.41866004 -40.7781463 89.97832294 -39.765625 86.52734375 C-39.4652684 85.50511467 -39.4652684 85.50511467 -39.15884399 84.4622345 C-38.52119364 82.28772138 -37.88552949 80.11263382 -37.25 77.9375 C-36.80171435 76.40735437 -36.35330806 74.87724407 -35.90478516 73.34716797 C-34.80018815 69.57745218 -33.69759636 65.80715331 -32.59558105 62.03668213 C-31.7553363 59.16333438 -30.9127556 56.29067262 -30.0703125 53.41796875 C-29.50513908 51.48699944 -28.94003204 49.55601069 -28.375 47.625 C-28.10292725 46.69824463 -27.83085449 45.77148926 -27.55053711 44.81665039 C-25.96577516 39.39499795 -24.4320537 33.9618043 -22.93359375 28.515625 C-22.58055176 27.24509277 -22.22750977 25.97456055 -21.86376953 24.66552734 C-21.17986832 22.19960766 -20.50459167 19.73127426 -19.83935547 17.26025391 C-16.19189487 4.16144062 -16.19189487 4.16144062 -11.015625 0.65625 C-7.25805286 -0.56714558 -3.88896692 -0.71706865 0 0 Z " fill="#2C875A" transform="translate(269,512)"/>
<path d="M0 0 C20.79 0 41.58 0 63 0 C63 11.22 63 22.44 63 34 C63.66 34 64.32 34 65 34 C63.51714152 39.15776863 61.23020113 43.42828212 58.5 48 C58.05567627 48.74620605 57.61135254 49.49241211 57.15356445 50.26123047 C38.00342966 81.99458136 11.00616584 107.46628167 -21 126 C-21.60054199 126.34885254 -22.20108398 126.69770508 -22.81982422 127.05712891 C-54.69512423 145.34785117 -91.21476623 155.05100668 -128 154 C-128 145.42 -128 136.84 -128 128 C-106.88 128 -85.76 128 -64 128 C-64 106.88 -64 85.76 -64 64 C-42.88 64 -21.76 64 0 64 C0 42.88 0 21.76 0 0 Z " fill="#EEEEEE" transform="translate(640,576)"/>
<path d="M0 0 C2.09617968 2.71591642 3.95495978 5.47797795 5.71484375 8.421875 C12.57175056 19.77282835 19.69287997 30.6563315 28 41 C28.70044434 41.87398437 28.70044434 41.87398437 29.41503906 42.765625 C41.1789362 57.28451403 54.36673024 70.71413796 69.41503906 81.82080078 C70.91731118 82.93848013 72.39318332 84.0913902 73.8671875 85.24609375 C82.17367176 91.70030105 91.04001862 97.19435647 99.9921875 102.70068359 C102.05961415 104.03857813 104.02994989 105.52246242 106 107 C105.67 114.26 105.34 121.52 105 129 C83.88 129 62.76 129 41 129 C41 107.88 41 86.76 41 65 C19.88 65 -1.24 65 -23 65 C-23 44.21 -23 23.42 -23 2 C-15.41 2 -7.82 2 0 2 C0 1.34 0 0.68 0 0 Z " fill="#EEEFEE" transform="translate(279,639)"/>
<path d="M0 0 C21.12 0 42.24 0 64 0 C64 21.12 64 42.24 64 64 C85.12 64 106.24 64 128 64 C128 72.58 128 81.16 128 90 C84.30118261 91.61847472 40.75156113 76.73289216 5 52 C3.6862439 51.28372437 3.6862439 51.28372437 2.34594727 50.55297852 C-1.36178694 46.51803455 -0.62134145 42.39406515 -0.48828125 37.109375 C-0.48324585 36.16980957 -0.47821045 35.23024414 -0.47302246 34.26220703 C-0.44689356 30.75782692 -0.37708611 27.25388232 -0.3125 23.75 C-0.1578125 11.99375 -0.1578125 11.99375 0 0 Z " fill="#FEFEFE" transform="translate(384,640)"/>
<path d="M0 0 C18.16975877 -0.57702127 34.41198671 0.08922961 52 5 C52.85883789 5.22993652 53.71767578 5.45987305 54.60253906 5.69677734 C79.17220987 12.31457087 109.56834932 22.56834932 128 41 C128.24050903 43.06277466 128.24050903 43.06277466 128.22705078 45.63330078 C128.22680908 46.60759033 128.22656738 47.58187988 128.22631836 48.58569336 C128.21608643 49.61186768 128.20585449 50.63804199 128.1953125 51.6953125 C128.19329834 52.63689209 128.19128418 53.57847168 128.18920898 54.54858398 C128.17872564 58.07410537 128.15080316 61.59955745 128.125 65.125 C128.08375 73.00375 128.0425 80.8825 128 89 C106.88 89 85.76 89 64 89 C64 67.88 64 46.76 64 25 C42.88 25 21.76 25 0 25 C0 16.75 0 8.5 0 0 Z " fill="#FEFEFE" transform="translate(512,295)"/>
<path d="M0 0 C21.12 0 42.24 0 64 0 C64.33 21.12 64.66 42.24 65 64 C43.55 64 22.1 64 0 64 C0 42.88 0 21.76 0 0 Z " fill="#FEFEFE" transform="translate(192,448)"/>
<path d="M0 0 C21.12 0 42.24 0 64 0 C64 21.12 64 42.24 64 64 C42.88 64 21.76 64 0 64 C0 42.88 0 21.76 0 0 Z " fill="#EEEEEE" transform="translate(832,960)"/>
<path d="M0 0 C21.12 0 42.24 0 64 0 C64 21.12 64 42.24 64 64 C42.88 64 21.76 64 0 64 C0 42.88 0 21.76 0 0 Z " fill="#FEFEFE" transform="translate(768,960)"/>
<path d="M0 0 C21.12 0 42.24 0 64 0 C64 21.12 64 42.24 64 64 C42.88 64 21.76 64 0 64 C0 42.88 0 21.76 0 0 Z " fill="#EEEEEE" transform="translate(704,960)"/>
<path d="M0 0 C21.12 0 42.24 0 64 0 C64 21.12 64 42.24 64 64 C42.88 64 21.76 64 0 64 C0 42.88 0 21.76 0 0 Z " fill="#FEFEFE" transform="translate(640,960)"/>
<path d="M0 0 C21.12 0 42.24 0 64 0 C64 21.12 64 42.24 64 64 C42.88 64 21.76 64 0 64 C0 42.88 0 21.76 0 0 Z " fill="#EEEEEE" transform="translate(576,960)"/>
<path d="M0 0 C21.12 0 42.24 0 64 0 C64 21.12 64 42.24 64 64 C42.88 64 21.76 64 0 64 C0 42.88 0 21.76 0 0 Z " fill="#FEFEFE" transform="translate(512,960)"/>
<path d="M0 0 C21.12 0 42.24 0 64 0 C64 21.12 64 42.24 64 64 C42.88 64 21.76 64 0 64 C0 42.88 0 21.76 0 0 Z " fill="#EEEFEF" transform="translate(448,960)"/>
<path d="M0 0 C21.12 0 42.24 0 64 0 C64 21.12 64 42.24 64 64 C42.88 64 21.76 64 0 64 C0 42.88 0 21.76 0 0 Z " fill="#FEFEFE" transform="translate(384,960)"/>
<path d="M0 0 C21.12 0 42.24 0 64 0 C64 21.12 64 42.24 64 64 C42.88 64 21.76 64 0 64 C0 42.88 0 21.76 0 0 Z " fill="#EEEFEF" transform="translate(320,960)"/>
<path d="M0 0 C21.12 0 42.24 0 64 0 C64 21.12 64 42.24 64 64 C42.88 64 21.76 64 0 64 C0 42.88 0 21.76 0 0 Z " fill="#FEFEFE" transform="translate(256,960)"/>
<path d="M0 0 C21.12 0 42.24 0 64 0 C64 21.12 64 42.24 64 64 C42.88 64 21.76 64 0 64 C0 42.88 0 21.76 0 0 Z " fill="#EEEFEF" transform="translate(192,960)"/>
<path d="M0 0 C21.12 0 42.24 0 64 0 C64 21.12 64 42.24 64 64 C42.88 64 21.76 64 0 64 C0 42.88 0 21.76 0 0 Z " fill="#FEFEFE" transform="translate(128,960)"/>
<path d="M0 0 C21.12 0 42.24 0 64 0 C64 21.12 64 42.24 64 64 C42.88 64 21.76 64 0 64 C0 42.88 0 21.76 0 0 Z " fill="#EEEFEF" transform="translate(64,960)"/>
<path d="M0 0 C21.12 0 42.24 0 64 0 C64 21.12 64 42.24 64 64 C42.88 64 21.76 64 0 64 C0 42.88 0 21.76 0 0 Z " fill="#FEFEFE" transform="translate(0,960)"/>
<path d="M0 0 C21.12 0 42.24 0 64 0 C64 21.12 64 42.24 64 64 C42.88 64 21.76 64 0 64 C0 42.88 0 21.76 0 0 Z " fill="#FEFEFE" transform="translate(832,896)"/>
<path d="M0 0 C21.12 0 42.24 0 64 0 C64 21.12 64 42.24 64 64 C42.88 64 21.76 64 0 64 C0 42.88 0 21.76 0 0 Z " fill="#EEEEEE" transform="translate(768,896)"/>
<path d="M0 0 C21.12 0 42.24 0 64 0 C64 21.12 64 42.24 64 64 C42.88 64 21.76 64 0 64 C0 42.88 0 21.76 0 0 Z " fill="#FEFEFE" transform="translate(704,896)"/>
<path d="M0 0 C21.12 0 42.24 0 64 0 C64 21.12 64 42.24 64 64 C42.88 64 21.76 64 0 64 C0 42.88 0 21.76 0 0 Z " fill="#EEEEEE" transform="translate(640,896)"/>
<path d="M0 0 C21.12 0 42.24 0 64 0 C64 21.12 64 42.24 64 64 C42.88 64 21.76 64 0 64 C0 42.88 0 21.76 0 0 Z " fill="#FEFEFE" transform="translate(576,896)"/>
<path d="M0 0 C21.12 0 42.24 0 64 0 C64 21.12 64 42.24 64 64 C42.88 64 21.76 64 0 64 C0 42.88 0 21.76 0 0 Z " fill="#FEFEFE" transform="translate(448,896)"/>
<path d="M0 0 C21.12 0 42.24 0 64 0 C64 21.12 64 42.24 64 64 C42.88 64 21.76 64 0 64 C0 42.88 0 21.76 0 0 Z " fill="#EEEFEF" transform="translate(384,896)"/>
<path d="M0 0 C21.12 0 42.24 0 64 0 C64 21.12 64 42.24 64 64 C42.88 64 21.76 64 0 64 C0 42.88 0 21.76 0 0 Z " fill="#FEFEFE" transform="translate(320,896)"/>
<path d="M0 0 C21.12 0 42.24 0 64 0 C64 21.12 64 42.24 64 64 C42.88 64 21.76 64 0 64 C0 42.88 0 21.76 0 0 Z " fill="#EFEFEF" transform="translate(256,896)"/>
<path d="M0 0 C21.12 0 42.24 0 64 0 C64 21.12 64 42.24 64 64 C42.88 64 21.76 64 0 64 C0 42.88 0 21.76 0 0 Z " fill="#FEFEFE" transform="translate(192,896)"/>
<path d="M0 0 C21.12 0 42.24 0 64 0 C64 21.12 64 42.24 64 64 C42.88 64 21.76 64 0 64 C0 42.88 0 21.76 0 0 Z " fill="#EEEFEF" transform="translate(128,896)"/>
<path d="M0 0 C21.12 0 42.24 0 64 0 C64 21.12 64 42.24 64 64 C42.88 64 21.76 64 0 64 C0 42.88 0 21.76 0 0 Z " fill="#FEFEFE" transform="translate(64,896)"/>
<path d="M0 0 C21.12 0 42.24 0 64 0 C64 21.12 64 42.24 64 64 C42.88 64 21.76 64 0 64 C0 42.88 0 21.76 0 0 Z " fill="#EEEEEE" transform="translate(0,896)"/>
<path d="M0 0 C21.12 0 42.24 0 64 0 C64 21.12 64 42.24 64 64 C42.88 64 21.76 64 0 64 C0 42.88 0 21.76 0 0 Z " fill="#EEEEEE" transform="translate(960,832)"/>
<path d="M0 0 C21.12 0 42.24 0 64 0 C64 21.12 64 42.24 64 64 C42.88 64 21.76 64 0 64 C0 42.88 0 21.76 0 0 Z " fill="#FEFEFE" transform="translate(896,832)"/>
<path d="M0 0 C21.12 0 42.24 0 64 0 C64 21.12 64 42.24 64 64 C42.88 64 21.76 64 0 64 C0 42.88 0 21.76 0 0 Z " fill="#EEEEEE" transform="translate(832,832)"/>
<path d="M0 0 C21.12 0 42.24 0 64 0 C64 21.12 64 42.24 64 64 C42.88 64 21.76 64 0 64 C0 42.88 0 21.76 0 0 Z " fill="#FEFEFE" transform="translate(768,832)"/>
<path d="M0 0 C21.12 0 42.24 0 64 0 C64 21.12 64 42.24 64 64 C42.88 64 21.76 64 0 64 C0 42.88 0 21.76 0 0 Z " fill="#EEEFEE" transform="translate(704,832)"/>
<path d="M0 0 C21.12 0 42.24 0 64 0 C64 21.12 64 42.24 64 64 C42.88 64 21.76 64 0 64 C0 42.88 0 21.76 0 0 Z " fill="#FEFEFE" transform="translate(640,832)"/>
<path d="M0 0 C21.12 0 42.24 0 64 0 C64 21.12 64 42.24 64 64 C42.88 64 21.76 64 0 64 C0 42.88 0 21.76 0 0 Z " fill="#EEEFEE" transform="translate(576,832)"/>
<path d="M0 0 C21.12 0 42.24 0 64 0 C64 21.12 64 42.24 64 64 C42.88 64 21.76 64 0 64 C0 42.88 0 21.76 0 0 Z " fill="#FEFEFE" transform="translate(512,832)"/>
<path d="M0 0 C21.12 0 42.24 0 64 0 C64 21.12 64 42.24 64 64 C42.88 64 21.76 64 0 64 C0 42.88 0 21.76 0 0 Z " fill="#EEEFEE" transform="translate(448,832)"/>
<path d="M0 0 C21.12 0 42.24 0 64 0 C64 21.12 64 42.24 64 64 C42.88 64 21.76 64 0 64 C0 42.88 0 21.76 0 0 Z " fill="#FEFEFE" transform="translate(384,832)"/>
<path d="M0 0 C21.12 0 42.24 0 64 0 C64 21.12 64 42.24 64 64 C42.88 64 21.76 64 0 64 C0 42.88 0 21.76 0 0 Z " fill="#EFEFEF" transform="translate(320,832)"/>
<path d="M0 0 C21.12 0 42.24 0 64 0 C64 21.12 64 42.24 64 64 C42.88 64 21.76 64 0 64 C0 42.88 0 21.76 0 0 Z " fill="#FEFEFE" transform="translate(256,832)"/>
<path d="M0 0 C21.12 0 42.24 0 64 0 C64 21.12 64 42.24 64 64 C42.88 64 21.76 64 0 64 C0 42.88 0 21.76 0 0 Z " fill="#EEEFEF" transform="translate(192,832)"/>
<path d="M0 0 C21.12 0 42.24 0 64 0 C64 21.12 64 42.24 64 64 C42.88 64 21.76 64 0 64 C0 42.88 0 21.76 0 0 Z " fill="#EEEFEE" transform="translate(64,832)"/>
<path d="M0 0 C21.12 0 42.24 0 64 0 C64 21.12 64 42.24 64 64 C42.88 64 21.76 64 0 64 C0 42.88 0 21.76 0 0 Z " fill="#FEFEFE" transform="translate(960,768)"/>
<path d="M0 0 C21.12 0 42.24 0 64 0 C64 21.12 64 42.24 64 64 C42.88 64 21.76 64 0 64 C0 42.88 0 21.76 0 0 Z " fill="#EEEFEE" transform="translate(896,768)"/>
<path d="M0 0 C21.12 0 42.24 0 64 0 C64 21.12 64 42.24 64 64 C42.88 64 21.76 64 0 64 C0 42.88 0 21.76 0 0 Z " fill="#FEFEFE" transform="translate(832,768)"/>
<path d="M0 0 C21.12 0 42.24 0 64 0 C64 21.12 64 42.24 64 64 C42.88 64 21.76 64 0 64 C0 42.88 0 21.76 0 0 Z " fill="#EEEFEE" transform="translate(768,768)"/>
<path d="M0 0 C21.12 0 42.24 0 64 0 C64 21.12 64 42.24 64 64 C42.88 64 21.76 64 0 64 C0 42.88 0 21.76 0 0 Z " fill="#FEFEFE" transform="translate(704,768)"/>
<path d="M0 0 C21.12 0 42.24 0 64 0 C64 21.12 64 42.24 64 64 C42.88 64 21.76 64 0 64 C0 42.88 0 21.76 0 0 Z " fill="#EEEFEE" transform="translate(640,768)"/>
<path d="M0 0 C21.12 0 42.24 0 64 0 C64 21.12 64 42.24 64 64 C42.88 64 21.76 64 0 64 C0 42.88 0 21.76 0 0 Z " fill="#EFEFEF" transform="translate(256,768)"/>
<path d="M0 0 C21.12 0 42.24 0 64 0 C64 21.12 64 42.24 64 64 C42.88 64 21.76 64 0 64 C0 42.88 0 21.76 0 0 Z " fill="#EEEFEF" transform="translate(128,768)"/>
<path d="M0 0 C21.12 0 42.24 0 64 0 C64 21.12 64 42.24 64 64 C42.88 64 21.76 64 0 64 C0 42.88 0 21.76 0 0 Z " fill="#EEEEEE" transform="translate(0,768)"/>
<path d="M0 0 C21.12 0 42.24 0 64 0 C64 21.12 64 42.24 64 64 C42.88 64 21.76 64 0 64 C0 42.88 0 21.76 0 0 Z " fill="#EEEEEE" transform="translate(960,704)"/>
<path d="M0 0 C21.12 0 42.24 0 64 0 C64 21.12 64 42.24 64 64 C42.88 64 21.76 64 0 64 C0 42.88 0 21.76 0 0 Z " fill="#EEEEEE" transform="translate(832,704)"/>
<path d="M0 0 C21.12 0 42.24 0 64 0 C64 21.12 64 42.24 64 64 C42.88 64 21.76 64 0 64 C0 42.88 0 21.76 0 0 Z " fill="#EEEFEE" transform="translate(704,704)"/>
<path d="M0 0 C21.12 0 42.24 0 64 0 C64 21.12 64 42.24 64 64 C42.88 64 21.76 64 0 64 C0 42.88 0 21.76 0 0 Z " fill="#EEEFEE" transform="translate(192,704)"/>
<path d="M0 0 C21.12 0 42.24 0 64 0 C64 21.12 64 42.24 64 64 C42.88 64 21.76 64 0 64 C0 42.88 0 21.76 0 0 Z " fill="#FEFEFE" transform="translate(960,640)"/>
<path d="M0 0 C21.12 0 42.24 0 64 0 C64 21.12 64 42.24 64 64 C42.88 64 21.76 64 0 64 C0 42.88 0 21.76 0 0 Z " fill="#EEEFEE" transform="translate(896,640)"/>
<path d="M0 0 C21.12 0 42.24 0 64 0 C64 21.12 64 42.24 64 64 C42.88 64 21.76 64 0 64 C0 42.88 0 21.76 0 0 Z " fill="#EEEFEE" transform="translate(768,640)"/>
<path d="M0 0 C21.12 0 42.24 0 64 0 C64 21.12 64 42.24 64 64 C42.88 64 21.76 64 0 64 C0 42.88 0 21.76 0 0 Z " fill="#FEFEFE" transform="translate(512,640)"/>
<path d="M0 0 C21.12 0 42.24 0 64 0 C64 21.12 64 42.24 64 64 C42.88 64 21.76 64 0 64 C0 42.88 0 21.76 0 0 Z " fill="#EEEFEE" transform="translate(448,640)"/>
<path d="M0 0 C21.12 0 42.24 0 64 0 C64 21.12 64 42.24 64 64 C42.88 64 21.76 64 0 64 C0 42.88 0 21.76 0 0 Z " fill="#EEEEEE" transform="translate(960,576)"/>
<path d="M0 0 C21.12 0 42.24 0 64 0 C64 21.12 64 42.24 64 64 C42.88 64 21.76 64 0 64 C0 42.88 0 21.76 0 0 Z " fill="#EEEEEE" transform="translate(832,576)"/>
<path d="M0 0 C21.12 0 42.24 0 64 0 C64 21.12 64 42.24 64 64 C42.88 64 21.76 64 0 64 C0 42.88 0 21.76 0 0 Z " fill="#FEFEFE" transform="translate(576,576)"/>
<path d="M0 0 C21.12 0 42.24 0 64 0 C64 21.12 64 42.24 64 64 C42.88 64 21.76 64 0 64 C0 42.88 0 21.76 0 0 Z " fill="#EEEFEE" transform="translate(512,576)"/>
<path d="M0 0 C21.12 0 42.24 0 64 0 C64 21.12 64 42.24 64 64 C42.88 64 21.76 64 0 64 C0 42.88 0 21.76 0 0 Z " fill="#FEFEFE" transform="translate(448,576)"/>
<path d="M0 0 C21.12 0 42.24 0 64 0 C64 21.12 64 42.24 64 64 C42.88 64 21.76 64 0 64 C0 42.88 0 21.76 0 0 Z " fill="#EEEFEE" transform="translate(384,576)"/>
<path d="M0 0 C21.12 0 42.24 0 64 0 C64 21.12 64 42.24 64 64 C42.88 64 21.76 64 0 64 C0 42.88 0 21.76 0 0 Z " fill="#EEEFEE" transform="translate(128,576)"/>
<path d="M0 0 C21.12 0 42.24 0 64 0 C64 21.12 64 42.24 64 64 C42.88 64 21.76 64 0 64 C0 42.88 0 21.76 0 0 Z " fill="#EEEEEE" transform="translate(0,576)"/>
<path d="M0 0 C21.12 0 42.24 0 64 0 C64 21.12 64 42.24 64 64 C42.88 64 21.76 64 0 64 C0 42.88 0 21.76 0 0 Z " fill="#FEFEFE" transform="translate(960,512)"/>
<path d="M0 0 C21.12 0 42.24 0 64 0 C64 21.12 64 42.24 64 64 C42.88 64 21.76 64 0 64 C0 42.88 0 21.76 0 0 Z " fill="#EEEEEE" transform="translate(896,512)"/>
<path d="M0 0 C21.12 0 42.24 0 64 0 C64 21.12 64 42.24 64 64 C42.88 64 21.76 64 0 64 C0 42.88 0 21.76 0 0 Z " fill="#EEEEEE" transform="translate(768,512)"/>
<path d="M0 0 C21.12 0 42.24 0 64 0 C64 21.12 64 42.24 64 64 C42.88 64 21.76 64 0 64 C0 42.88 0 21.76 0 0 Z " fill="#EEEEEE" transform="translate(576,512)"/>
<path d="M0 0 C21.12 0 42.24 0 64 0 C64 21.12 64 42.24 64 64 C42.88 64 21.76 64 0 64 C0 42.88 0 21.76 0 0 Z " fill="#FEFEFE" transform="translate(512,512)"/>
<path d="M0 0 C21.12 0 42.24 0 64 0 C64 21.12 64 42.24 64 64 C42.88 64 21.76 64 0 64 C0 42.88 0 21.76 0 0 Z " fill="#EEEFEE" transform="translate(448,512)"/>
<path d="M0 0 C21.12 0 42.24 0 64 0 C64 21.12 64 42.24 64 64 C42.88 64 21.76 64 0 64 C0 42.88 0 21.76 0 0 Z " fill="#FEFEFE" transform="translate(384,512)"/>
<path d="M0 0 C21.12 0 42.24 0 64 0 C64 21.12 64 42.24 64 64 C42.88 64 21.76 64 0 64 C0 42.88 0 21.76 0 0 Z " fill="#FEFEFE" transform="translate(128,512)"/>
<path d="M0 0 C21.12 0 42.24 0 64 0 C64 21.12 64 42.24 64 64 C42.88 64 21.76 64 0 64 C0 42.88 0 21.76 0 0 Z " fill="#EEEFEF" transform="translate(64,512)"/>
<path d="M0 0 C21.12 0 42.24 0 64 0 C64 21.12 64 42.24 64 64 C42.88 64 21.76 64 0 64 C0 42.88 0 21.76 0 0 Z " fill="#FEFEFE" transform="translate(0,512)"/>
<path d="M0 0 C21.12 0 42.24 0 64 0 C64 21.12 64 42.24 64 64 C42.88 64 21.76 64 0 64 C0 42.88 0 21.76 0 0 Z " fill="#EEEEEE" transform="translate(960,448)"/>
<path d="M0 0 C21.12 0 42.24 0 64 0 C64 21.12 64 42.24 64 64 C42.88 64 21.76 64 0 64 C0 42.88 0 21.76 0 0 Z " fill="#EEEEEE" transform="translate(832,448)"/>
<path d="M0 0 C21.12 0 42.24 0 64 0 C64 21.12 64 42.24 64 64 C42.88 64 21.76 64 0 64 C0 42.88 0 21.76 0 0 Z " fill="#FEFEFE" transform="translate(576,448)"/>
<path d="M0 0 C21.12 0 42.24 0 64 0 C64 21.12 64 42.24 64 64 C42.88 64 21.76 64 0 64 C0 42.88 0 21.76 0 0 Z " fill="#EEEEEE" transform="translate(512,448)"/>
<path d="M0 0 C21.12 0 42.24 0 64 0 C64 21.12 64 42.24 64 64 C42.88 64 21.76 64 0 64 C0 42.88 0 21.76 0 0 Z " fill="#FEFEFE" transform="translate(448,448)"/>
<path d="M0 0 C21.12 0 42.24 0 64 0 C64 21.12 64 42.24 64 64 C42.88 64 21.76 64 0 64 C0 42.88 0 21.76 0 0 Z " fill="#EEEFEF" transform="translate(384,448)"/>
<path d="M0 0 C21.12 0 42.24 0 64 0 C64 21.12 64 42.24 64 64 C42.88 64 21.76 64 0 64 C0 42.88 0 21.76 0 0 Z " fill="#FEFEFE" transform="translate(320,448)"/>
<path d="M0 0 C21.12 0 42.24 0 64 0 C64 21.12 64 42.24 64 64 C42.88 64 21.76 64 0 64 C0 42.88 0 21.76 0 0 Z " fill="#EEEFEE" transform="translate(128,448)"/>
<path d="M0 0 C21.12 0 42.24 0 64 0 C64 21.12 64 42.24 64 64 C42.88 64 21.76 64 0 64 C0 42.88 0 21.76 0 0 Z " fill="#FEFEFE" transform="translate(64,448)"/>
<path d="M0 0 C21.12 0 42.24 0 64 0 C64 21.12 64 42.24 64 64 C42.88 64 21.76 64 0 64 C0 42.88 0 21.76 0 0 Z " fill="#EEEEEE" transform="translate(0,448)"/>
<path d="M0 0 C21.12 0 42.24 0 64 0 C64 21.12 64 42.24 64 64 C42.88 64 21.76 64 0 64 C0 42.88 0 21.76 0 0 Z " fill="#FEFEFE" transform="translate(512,384)"/>
<path d="M0 0 C21.12 0 42.24 0 64 0 C64 21.12 64 42.24 64 64 C42.88 64 21.76 64 0 64 C0 42.88 0 21.76 0 0 Z " fill="#EFEFEE" transform="translate(448,384)"/>
<path d="M0 0 C21.12 0 42.24 0 64 0 C64 21.12 64 42.24 64 64 C42.88 64 21.76 64 0 64 C0 42.88 0 21.76 0 0 Z " fill="#FEFEFE" transform="translate(384,384)"/>
<path d="M0 0 C21.12 0 42.24 0 64 0 C64 21.12 64 42.24 64 64 C42.88 64 21.76 64 0 64 C0 42.88 0 21.76 0 0 Z " fill="#FEFEFE" transform="translate(128,384)"/>
<path d="M0 0 C21.12 0 42.24 0 64 0 C64 21.12 64 42.24 64 64 C42.88 64 21.76 64 0 64 C0 42.88 0 21.76 0 0 Z " fill="#EEEFEE" transform="translate(64,384)"/>
<path d="M0 0 C21.12 0 42.24 0 64 0 C64 21.12 64 42.24 64 64 C42.88 64 21.76 64 0 64 C0 42.88 0 21.76 0 0 Z " fill="#FEFEFE" transform="translate(0,384)"/>
<path d="M0 0 C21.12 0 42.24 0 64 0 C64 21.12 64 42.24 64 64 C42.88 64 21.76 64 0 64 C0 42.88 0 21.76 0 0 Z " fill="#EEEEEE" transform="translate(896,320)"/>
<path d="M0 0 C21.12 0 42.24 0 64 0 C64 21.12 64 42.24 64 64 C42.88 64 21.76 64 0 64 C0 42.88 0 21.76 0 0 Z " fill="#EEEFEE" transform="translate(512,320)"/>
<path d="M0 0 C21.12 0 42.24 0 64 0 C64 21.12 64 42.24 64 64 C42.88 64 21.76 64 0 64 C0 42.88 0 21.76 0 0 Z " fill="#FEFEFE" transform="translate(448,320)"/>
<path d="M0 0 C21.12 0 42.24 0 64 0 C64 21.12 64 42.24 64 64 C42.88 64 21.76 64 0 64 C0 42.88 0 21.76 0 0 Z " fill="#FEFEFE" transform="translate(192,320)"/>
<path d="M0 0 C21.12 0 42.24 0 64 0 C64 21.12 64 42.24 64 64 C42.88 64 21.76 64 0 64 C0 42.88 0 21.76 0 0 Z " fill="#EFEFEF" transform="translate(128,320)"/>
<path d="M0 0 C21.12 0 42.24 0 64 0 C64 21.12 64 42.24 64 64 C42.88 64 21.76 64 0 64 C0 42.88 0 21.76 0 0 Z " fill="#FEFEFE" transform="translate(64,320)"/>
<path d="M0 0 C21.12 0 42.24 0 64 0 C64 21.12 64 42.24 64 64 C42.88 64 21.76 64 0 64 C0 42.88 0 21.76 0 0 Z " fill="#EEEFEF" transform="translate(0,320)"/>
<path d="M0 0 C21.12 0 42.24 0 64 0 C64 21.12 64 42.24 64 64 C42.88 64 21.76 64 0 64 C0 42.88 0 21.76 0 0 Z " fill="#EEEEEE" transform="translate(960,256)"/>
<path d="M0 0 C21.12 0 42.24 0 64 0 C64 21.12 64 42.24 64 64 C42.88 64 21.76 64 0 64 C0 42.88 0 21.76 0 0 Z " fill="#FEFEFE" transform="translate(896,256)"/>
<path d="M0 0 C21.12 0 42.24 0 64 0 C64 21.12 64 42.24 64 64 C42.88 64 21.76 64 0 64 C0 42.88 0 21.76 0 0 Z " fill="#EEEFEE" transform="translate(832,256)"/>
<path d="M0 0 C21.12 0 42.24 0 64 0 C64 21.12 64 42.24 64 64 C42.88 64 21.76 64 0 64 C0 42.88 0 21.76 0 0 Z " fill="#EEEFEE" transform="translate(704,256)"/>
<path d="M0 0 C21.12 0 42.24 0 64 0 C64 21.12 64 42.24 64 64 C42.88 64 21.76 64 0 64 C0 42.88 0 21.76 0 0 Z " fill="#FEFEFE" transform="translate(256,256)"/>
<path d="M0 0 C21.12 0 42.24 0 64 0 C64 21.12 64 42.24 64 64 C42.88 64 21.76 64 0 64 C0 42.88 0 21.76 0 0 Z " fill="#EFEFEF" transform="translate(192,256)"/>
<path d="M0 0 C21.12 0 42.24 0 64 0 C64 21.12 64 42.24 64 64 C42.88 64 21.76 64 0 64 C0 42.88 0 21.76 0 0 Z " fill="#FEFEFE" transform="translate(128,256)"/>
<path d="M0 0 C21.12 0 42.24 0 64 0 C64 21.12 64 42.24 64 64 C42.88 64 21.76 64 0 64 C0 42.88 0 21.76 0 0 Z " fill="#EEEFEF" transform="translate(64,256)"/>
<path d="M0 0 C21.12 0 42.24 0 64 0 C64 21.12 64 42.24 64 64 C42.88 64 21.76 64 0 64 C0 42.88 0 21.76 0 0 Z " fill="#FEFEFE" transform="translate(0,256)"/>
<path d="M0 0 C21.12 0 42.24 0 64 0 C64 21.12 64 42.24 64 64 C42.88 64 21.76 64 0 64 C0 42.88 0 21.76 0 0 Z " fill="#FEFEFE" transform="translate(960,192)"/>
<path d="M0 0 C21.12 0 42.24 0 64 0 C64 21.12 64 42.24 64 64 C42.88 64 21.76 64 0 64 C0 42.88 0 21.76 0 0 Z " fill="#EEEFEE" transform="translate(896,192)"/>
<path d="M0 0 C21.12 0 42.24 0 64 0 C64 21.12 64 42.24 64 64 C42.88 64 21.76 64 0 64 C0 42.88 0 21.76 0 0 Z " fill="#FEFEFE" transform="translate(832,192)"/>
<path d="M0 0 C21.12 0 42.24 0 64 0 C64 21.12 64 42.24 64 64 C42.88 64 21.76 64 0 64 C0 42.88 0 21.76 0 0 Z " fill="#EEEFEE" transform="translate(768,192)"/>
<path d="M0 0 C21.12 0 42.24 0 64 0 C64 21.12 64 42.24 64 64 C42.88 64 21.76 64 0 64 C0 42.88 0 21.76 0 0 Z " fill="#FEFEFE" transform="translate(704,192)"/>
<path d="M0 0 C21.12 0 42.24 0 64 0 C64 21.12 64 42.24 64 64 C42.88 64 21.76 64 0 64 C0 42.88 0 21.76 0 0 Z " fill="#EEEFEE" transform="translate(640,192)"/>
<path d="M0 0 C21.12 0 42.24 0 64 0 C64 21.12 64 42.24 64 64 C42.88 64 21.76 64 0 64 C0 42.88 0 21.76 0 0 Z " fill="#FEFEFE" transform="translate(320,192)"/>
<path d="M0 0 C21.12 0 42.24 0 64 0 C64 21.12 64 42.24 64 64 C42.88 64 21.76 64 0 64 C0 42.88 0 21.76 0 0 Z " fill="#EFEFEF" transform="translate(256,192)"/>
<path d="M0 0 C21.12 0 42.24 0 64 0 C64 21.12 64 42.24 64 64 C42.88 64 21.76 64 0 64 C0 42.88 0 21.76 0 0 Z " fill="#FEFEFE" transform="translate(192,192)"/>
<path d="M0 0 C21.12 0 42.24 0 64 0 C64 21.12 64 42.24 64 64 C42.88 64 21.76 64 0 64 C0 42.88 0 21.76 0 0 Z " fill="#EEEFEF" transform="translate(128,192)"/>
<path d="M0 0 C21.12 0 42.24 0 64 0 C64 21.12 64 42.24 64 64 C42.88 64 21.76 64 0 64 C0 42.88 0 21.76 0 0 Z " fill="#FEFEFE" transform="translate(64,192)"/>
<path d="M0 0 C21.12 0 42.24 0 64 0 C64 21.12 64 42.24 64 64 C42.88 64 21.76 64 0 64 C0 42.88 0 21.76 0 0 Z " fill="#EEEFEE" transform="translate(0,192)"/>
<path d="M0 0 C21.12 0 42.24 0 64 0 C64 21.12 64 42.24 64 64 C42.88 64 21.76 64 0 64 C0 42.88 0 21.76 0 0 Z " fill="#EEEEEE" transform="translate(960,128)"/>
<path d="M0 0 C21.12 0 42.24 0 64 0 C64 21.12 64 42.24 64 64 C42.88 64 21.76 64 0 64 C0 42.88 0 21.76 0 0 Z " fill="#FEFEFE" transform="translate(896,128)"/>
<path d="M0 0 C21.12 0 42.24 0 64 0 C64 21.12 64 42.24 64 64 C42.88 64 21.76 64 0 64 C0 42.88 0 21.76 0 0 Z " fill="#EEEEEE" transform="translate(832,128)"/>
<path d="M0 0 C21.12 0 42.24 0 64 0 C64 21.12 64 42.24 64 64 C42.88 64 21.76 64 0 64 C0 42.88 0 21.76 0 0 Z " fill="#FEFEFE" transform="translate(768,128)"/>
<path d="M0 0 C21.12 0 42.24 0 64 0 C64 21.12 64 42.24 64 64 C42.88 64 21.76 64 0 64 C0 42.88 0 21.76 0 0 Z " fill="#EEEFEE" transform="translate(704,128)"/>
<path d="M0 0 C21.12 0 42.24 0 64 0 C64 21.12 64 42.24 64 64 C42.88 64 21.76 64 0 64 C0 42.88 0 21.76 0 0 Z " fill="#FEFEFE" transform="translate(640,128)"/>
<path d="M0 0 C21.12 0 42.24 0 64 0 C64 21.12 64 42.24 64 64 C42.88 64 21.76 64 0 64 C0 42.88 0 21.76 0 0 Z " fill="#EEEFEE" transform="translate(576,128)"/>
<path d="M0 0 C21.12 0 42.24 0 64 0 C64 21.12 64 42.24 64 64 C42.88 64 21.76 64 0 64 C0 42.88 0 21.76 0 0 Z " fill="#FEFEFE" transform="translate(512,128)"/>
<path d="M0 0 C21.12 0 42.24 0 64 0 C64 21.12 64 42.24 64 64 C42.88 64 21.76 64 0 64 C0 42.88 0 21.76 0 0 Z " fill="#EEEFEE" transform="translate(448,128)"/>
<path d="M0 0 C21.12 0 42.24 0 64 0 C64 21.12 64 42.24 64 64 C42.88 64 21.76 64 0 64 C0 42.88 0 21.76 0 0 Z " fill="#FEFEFE" transform="translate(384,128)"/>
<path d="M0 0 C21.12 0 42.24 0 64 0 C64 21.12 64 42.24 64 64 C42.88 64 21.76 64 0 64 C0 42.88 0 21.76 0 0 Z " fill="#EEEFEF" transform="translate(320,128)"/>
<path d="M0 0 C21.12 0 42.24 0 64 0 C64 21.12 64 42.24 64 64 C42.88 64 21.76 64 0 64 C0 42.88 0 21.76 0 0 Z " fill="#FEFEFE" transform="translate(256,128)"/>
<path d="M0 0 C21.12 0 42.24 0 64 0 C64 21.12 64 42.24 64 64 C42.88 64 21.76 64 0 64 C0 42.88 0 21.76 0 0 Z " fill="#EEEFEF" transform="translate(192,128)"/>
<path d="M0 0 C21.12 0 42.24 0 64 0 C64 21.12 64 42.24 64 64 C42.88 64 21.76 64 0 64 C0 42.88 0 21.76 0 0 Z " fill="#FEFEFE" transform="translate(128,128)"/>
<path d="M0 0 C21.12 0 42.24 0 64 0 C64 21.12 64 42.24 64 64 C42.88 64 21.76 64 0 64 C0 42.88 0 21.76 0 0 Z " fill="#EEEFEF" transform="translate(64,128)"/>
<path d="M0 0 C21.12 0 42.24 0 64 0 C64 21.12 64 42.24 64 64 C42.88 64 21.76 64 0 64 C0 42.88 0 21.76 0 0 Z " fill="#FEFEFE" transform="translate(0,128)"/>
<path d="M0 0 C21.12 0 42.24 0 64 0 C64 21.12 64 42.24 64 64 C42.88 64 21.76 64 0 64 C0 42.88 0 21.76 0 0 Z " fill="#FEFEFE" transform="translate(960,64)"/>
<path d="M0 0 C21.12 0 42.24 0 64 0 C64 21.12 64 42.24 64 64 C42.88 64 21.76 64 0 64 C0 42.88 0 21.76 0 0 Z " fill="#EEEEEE" transform="translate(896,64)"/>
<path d="M0 0 C21.12 0 42.24 0 64 0 C64 21.12 64 42.24 64 64 C42.88 64 21.76 64 0 64 C0 42.88 0 21.76 0 0 Z " fill="#FEFEFE" transform="translate(832,64)"/>
<path d="M0 0 C21.12 0 42.24 0 64 0 C64 21.12 64 42.24 64 64 C42.88 64 21.76 64 0 64 C0 42.88 0 21.76 0 0 Z " fill="#EEEFEE" transform="translate(768,64)"/>
<path d="M0 0 C21.12 0 42.24 0 64 0 C64 21.12 64 42.24 64 64 C42.88 64 21.76 64 0 64 C0 42.88 0 21.76 0 0 Z " fill="#FEFEFE" transform="translate(704,64)"/>
<path d="M0 0 C21.12 0 42.24 0 64 0 C64 21.12 64 42.24 64 64 C42.88 64 21.76 64 0 64 C0 42.88 0 21.76 0 0 Z " fill="#EEEFEE" transform="translate(640,64)"/>
<path d="M0 0 C21.12 0 42.24 0 64 0 C64 21.12 64 42.24 64 64 C42.88 64 21.76 64 0 64 C0 42.88 0 21.76 0 0 Z " fill="#FEFEFE" transform="translate(576,64)"/>
<path d="M0 0 C21.12 0 42.24 0 64 0 C64 21.12 64 42.24 64 64 C42.88 64 21.76 64 0 64 C0 42.88 0 21.76 0 0 Z " fill="#EEEFEE" transform="translate(512,64)"/>
<path d="M0 0 C21.12 0 42.24 0 64 0 C64 21.12 64 42.24 64 64 C42.88 64 21.76 64 0 64 C0 42.88 0 21.76 0 0 Z " fill="#FEFEFE" transform="translate(448,64)"/>
<path d="M0 0 C21.12 0 42.24 0 64 0 C64 21.12 64 42.24 64 64 C42.88 64 21.76 64 0 64 C0 42.88 0 21.76 0 0 Z " fill="#EFEFEF" transform="translate(384,64)"/>
<path d="M0 0 C21.12 0 42.24 0 64 0 C64 21.12 64 42.24 64 64 C42.88 64 21.76 64 0 64 C0 42.88 0 21.76 0 0 Z " fill="#FEFEFE" transform="translate(320,64)"/>
<path d="M0 0 C21.12 0 42.24 0 64 0 C64 21.12 64 42.24 64 64 C42.88 64 21.76 64 0 64 C0 42.88 0 21.76 0 0 Z " fill="#EFEFEF" transform="translate(256,64)"/>
<path d="M0 0 C21.12 0 42.24 0 64 0 C64 21.12 64 42.24 64 64 C42.88 64 21.76 64 0 64 C0 42.88 0 21.76 0 0 Z " fill="#FEFEFE" transform="translate(192,64)"/>
<path d="M0 0 C21.12 0 42.24 0 64 0 C64 21.12 64 42.24 64 64 C42.88 64 21.76 64 0 64 C0 42.88 0 21.76 0 0 Z " fill="#EFEFEE" transform="translate(128,64)"/>
<path d="M0 0 C21.12 0 42.24 0 64 0 C64 21.12 64 42.24 64 64 C42.88 64 21.76 64 0 64 C0 42.88 0 21.76 0 0 Z " fill="#FEFEFE" transform="translate(64,64)"/>
<path d="M0 0 C21.12 0 42.24 0 64 0 C64 21.12 64 42.24 64 64 C42.88 64 21.76 64 0 64 C0 42.88 0 21.76 0 0 Z " fill="#EEEFEE" transform="translate(0,64)"/>
<path d="M0 0 C21.12 0 42.24 0 64 0 C64 21.12 64 42.24 64 64 C42.88 64 21.76 64 0 64 C0 42.88 0 21.76 0 0 Z " fill="#EEEEEE" transform="translate(960,0)"/>
<path d="M0 0 C21.12 0 42.24 0 64 0 C64 21.12 64 42.24 64 64 C42.88 64 21.76 64 0 64 C0 42.88 0 21.76 0 0 Z " fill="#FEFEFE" transform="translate(896,0)"/>
<path d="M0 0 C21.12 0 42.24 0 64 0 C64 21.12 64 42.24 64 64 C42.88 64 21.76 64 0 64 C0 42.88 0 21.76 0 0 Z " fill="#EEEFEE" transform="translate(832,0)"/>
<path d="M0 0 C21.12 0 42.24 0 64 0 C64 21.12 64 42.24 64 64 C42.88 64 21.76 64 0 64 C0 42.88 0 21.76 0 0 Z " fill="#FEFEFE" transform="translate(768,0)"/>
<path d="M0 0 C21.12 0 42.24 0 64 0 C64 21.12 64 42.24 64 64 C42.88 64 21.76 64 0 64 C0 42.88 0 21.76 0 0 Z " fill="#EEEFEF" transform="translate(704,0)"/>
<path d="M0 0 C21.12 0 42.24 0 64 0 C64 21.12 64 42.24 64 64 C42.88 64 21.76 64 0 64 C0 42.88 0 21.76 0 0 Z " fill="#FEFEFE" transform="translate(640,0)"/>
<path d="M0 0 C21.12 0 42.24 0 64 0 C64 21.12 64 42.24 64 64 C42.88 64 21.76 64 0 64 C0 42.88 0 21.76 0 0 Z " fill="#EEEFEE" transform="translate(576,0)"/>
<path d="M0 0 C21.12 0 42.24 0 64 0 C64 21.12 64 42.24 64 64 C42.88 64 21.76 64 0 64 C0 42.88 0 21.76 0 0 Z " fill="#FEFEFE" transform="translate(512,0)"/>
<path d="M0 0 C21.12 0 42.24 0 64 0 C64 21.12 64 42.24 64 64 C42.88 64 21.76 64 0 64 C0 42.88 0 21.76 0 0 Z " fill="#EEEFEF" transform="translate(448,0)"/>
<path d="M0 0 C21.12 0 42.24 0 64 0 C64 21.12 64 42.24 64 64 C42.88 64 21.76 64 0 64 C0 42.88 0 21.76 0 0 Z " fill="#FEFEFE" transform="translate(384,0)"/>
<path d="M0 0 C21.12 0 42.24 0 64 0 C64 21.12 64 42.24 64 64 C42.88 64 21.76 64 0 64 C0 42.88 0 21.76 0 0 Z " fill="#EFEFEF" transform="translate(320,0)"/>
<path d="M0 0 C21.12 0 42.24 0 64 0 C64 21.12 64 42.24 64 64 C42.88 64 21.76 64 0 64 C0 42.88 0 21.76 0 0 Z " fill="#FEFEFE" transform="translate(256,0)"/>
<path d="M0 0 C21.12 0 42.24 0 64 0 C64 21.12 64 42.24 64 64 C42.88 64 21.76 64 0 64 C0 42.88 0 21.76 0 0 Z " fill="#EFEFEF" transform="translate(192,0)"/>
<path d="M0 0 C21.12 0 42.24 0 64 0 C64 21.12 64 42.24 64 64 C42.88 64 21.76 64 0 64 C0 42.88 0 21.76 0 0 Z " fill="#FEFEFE" transform="translate(128,0)"/>
<path d="M0 0 C21.12 0 42.24 0 64 0 C64 21.12 64 42.24 64 64 C42.88 64 21.76 64 0 64 C0 42.88 0 21.76 0 0 Z " fill="#FEFEFE" transform="translate(0,0)"/>
<path d="M0 0 C21.12 0 42.24 0 64 0 C64.04125 10.18875 64.0825 20.3775 64.125 30.875 C64.14320801 34.09362793 64.16141602 37.31225586 64.18017578 40.62841797 C64.18601444 43.16633945 64.19111147 45.70426278 64.1953125 48.2421875 C64.20053925 48.9038089 64.20576599 49.5654303 64.21115112 50.24710083 C64.22574825 52.19186732 64.22667728 54.13672174 64.22705078 56.08154297 C64.231492 57.17852509 64.23593323 58.2755072 64.24050903 59.4057312 C64 62 64 62 62 64 C59.4057312 64.24050903 59.4057312 64.24050903 56.08154297 64.22705078 C54.82301514 64.22680908 53.5644873 64.22656738 52.26782227 64.22631836 C50.92594201 64.2162464 49.58406368 64.20591319 48.2421875 64.1953125 C47.02539307 64.19329834 45.80859863 64.19128418 44.55493164 64.18920898 C39.99491627 64.17871837 35.43495448 64.15079599 30.875 64.125 C20.68625 64.08375 10.4975 64.0425 0 64 C0 42.88 0 21.76 0 0 Z " fill="#EEEEEE" transform="translate(896,896)"/>
<path d="M0 0 C1.05348633 0.02167236 2.10697266 0.04334473 3.19238281 0.06567383 C7.09727563 0.14915736 11.00174805 0.25145294 14.90625 0.3515625 C23.65125 0.5578125 32.39625 0.7640625 41.40625 0.9765625 C41.40625 22.0965625 41.40625 43.2165625 41.40625 64.9765625 C20.28625 64.9765625 -0.83375 64.9765625 -22.59375 64.9765625 C-22.92375 44.8465625 -23.25375 24.7165625 -23.59375 3.9765625 C-22.60375 3.9765625 -21.61375 3.9765625 -20.59375 3.9765625 C-20.59375 3.3165625 -20.59375 2.6565625 -20.59375 1.9765625 C-13.62150586 -0.19670083 -7.26373244 -0.20546937 0 0 Z " fill="#FEFEFE" transform="translate(598.59375,767.0234375)"/>
<path d="M0 0 C21.12 0 42.24 0 64 0 C64 20.79 64 41.58 64 63 C33.6875 63.375 33.6875 63.375 24.11987305 63.47802734 C21.62547723 63.51322303 19.13109149 63.54914313 16.63671875 63.5859375 C14.68409119 63.60297729 14.68409119 63.60297729 12.6920166 63.62036133 C10.83486023 63.65045288 10.83486023 63.65045288 8.94018555 63.68115234 C7.86318893 63.69447601 6.78619232 63.70779968 5.67655945 63.7215271 C2.77547651 63.81340175 2.77547651 63.81340175 0 66 C0 44.22 0 22.44 0 0 Z " fill="#EEEEEE" transform="translate(768,320)"/>
<path d="M0 0 C21.12 0 42.24 0 64 0 C64 20.79 64 41.58 64 63 C42.88 63 21.76 63 0 63 C0 42.21 0 21.42 0 0 Z " fill="#EEEFEE" transform="translate(64,705)"/>
<path d="M0 0 C21.12 0 42.24 0 64 0 C64 20.79 64 41.58 64 63 C42.88 63 21.76 63 0 63 C0 42.21 0 21.42 0 0 Z " fill="#EEEEEE" transform="translate(64,640)"/>
<path d="M0 0 C0.92425781 0.73863281 1.84851563 1.47726562 2.80078125 2.23828125 C3.62964844 2.92277344 4.45851563 3.60726563 5.3125 4.3125 C6.13363281 4.98925781 6.95476563 5.66601562 7.80078125 6.36328125 C8.48877808 6.97175903 8.48877808 6.97175903 9.19067383 7.5925293 C11.0876236 9.14208538 11.0876236 9.14208538 13.79956055 10.55786133 C17.78885569 13.07224665 21.33969594 15.33721801 22.53353882 20.15158081 C23.20888222 26.47200004 22.65524622 32.74236062 22.1875 39.0625 C21.795625 45.641875 21.40375 52.22125 21 59 C-0.12 59 -21.24 59 -43 59 C-43 37.88 -43 16.76 -43 -5 C-37.39 -5.28875 -31.78 -5.5775 -26 -5.875 C-23.36837891 -6.03524658 -23.36837891 -6.03524658 -20.68359375 -6.19873047 C-12.19166543 -6.60272183 -6.07440955 -6.60584518 0 0 Z " fill="#EEEEEE" transform="translate(683,453)"/>
<path d="M0 0 C-0.66 0.33 -1.32 0.66 -2 1 C-2 20.8 -2 40.6 -2 61 C-23.12 61 -44.24 61 -66 61 C-66 43.51 -66 26.02 -66 8 C-68.97 8 -71.94 8 -75 8 C-75 7.67 -75 7.34 -75 7 C-74.31711914 6.98018066 -73.63423828 6.96036133 -72.93066406 6.93994141 C-52.25435237 6.31307165 -32.45603894 5.05609027 -12.22241211 0.58886719 C-11.21057861 0.37004883 -10.19874512 0.15123047 -9.15625 -0.07421875 C-8.25712891 -0.27619873 -7.35800781 -0.47817871 -6.43164062 -0.6862793 C-3.94887198 -1.00659634 -2.35611218 -0.78342787 0 0 Z " fill="#EEEEEE" transform="translate(578,771)"/>
<path d="M0 0 C21.12 0 42.24 0 64 0 C64 20.13 64 40.26 64 61 C51.64218583 59.87656235 51.64218583 59.87656235 47.02734375 59.0625 C46.02509766 58.88976562 45.02285156 58.71703125 43.99023438 58.5390625 C42.98283203 58.36117187 41.97542969 58.18328125 40.9375 58 C28.04374958 55.73188329 15.44511257 54.79306047 2.375 54.4375 C0.87889688 54.39420285 -0.61719701 54.35058544 -2.11328125 54.30664062 C-5.74208861 54.20073818 -9.37100135 54.0991582 -13 54 C-13 53.67 -13 53.34 -13 53 C-8.71 53 -4.42 53 0 53 C0 35.51 0 18.02 0 0 Z " fill="#EEEFEE" transform="translate(512,192)"/>
<path d="M0 0 C10.0617284 1.11796982 10.0617284 1.11796982 14.96875 1.9375 C25.96196623 3.72824257 36.78146311 5.4133168 47.92578125 5.7265625 C53.65452982 6.11104227 59.3251294 7.12694298 65 8 C65 25.49 65 42.98 65 61 C43.88 61 22.76 61 1 61 C0.67 40.87 0.34 20.74 0 0 Z " fill="#FEFEFE" transform="translate(447,771)"/>
<path d="M0 0 C21.12 0 42.24 0 64 0 C64 17.49 64 34.98 64 53 C57.565 53.495 57.565 53.495 51 54 C49.02 54.495 49.02 54.495 47 55 C44.06296123 55.29283407 41.12792994 55.55966412 38.1875 55.8125 C29.20273623 56.634318 20.38462785 58.03243633 11.51635742 59.67895508 C10.59314697 59.84935303 9.66993652 60.01975098 8.71875 60.1953125 C7.90341797 60.35016113 7.08808594 60.50500977 6.24804688 60.66455078 C4 61 4 61 0 61 C0 40.87 0 20.74 0 0 Z " fill="#FEFEFE" transform="translate(448,192)"/>
<path d="M0 0 C21.12 0 42.24 0 64 0 C63.22687759 3.09248963 62.37925893 5.61359516 61.1484375 8.51171875 C58.85315976 14.16919549 57.21384315 19.92383561 55.625 25.8125 C55.01992305 28.01052456 54.41444706 30.20843931 53.80859375 32.40625 C53.50808105 33.50324219 53.20756836 34.60023438 52.89794922 35.73046875 C51.51557774 40.76383438 50.10785506 45.78973721 48.6875 50.8125 C48.44531738 51.68302002 48.20313477 52.55354004 47.95361328 53.45043945 C47.72528809 54.25698975 47.49696289 55.06354004 47.26171875 55.89453125 C47.06537842 56.59425049 46.86903809 57.29396973 46.66674805 58.01489258 C46 60 46 60 44 64 C29.48 64 14.96 64 0 64 C0 42.88 0 21.76 0 0 Z " fill="#EEEFEE" transform="translate(192,512)"/>
<path d="M0 0 C7.59 0 15.18 0 23 0 C21.72777839 3.81666484 20.51933854 7.10040592 18.875 10.6875 C16.36916296 16.98518857 15.54080017 23.08886602 17.953125 29.5546875 C20.25911833 34.00613032 22.70965448 37.27929308 27 40 C28.2375 40.86625 28.2375 40.86625 29.5 41.75 C36.52856135 44.26020048 45.29995914 44.21027149 52.22265625 41.1953125 C55.18837459 39.20078544 57.28830881 36.5548299 59.45703125 33.7421875 C61 32 61 32 64 31 C64 41.89 64 52.78 64 64 C42.88 64 21.76 64 0 64 C0 42.88 0 21.76 0 0 Z " fill="#FDFEFD" transform="translate(256,384)"/>
<path d="M0 0 C20.79 0 41.58 0 63 0 C63 21.12 63 42.24 63 64 C55.08 64 47.16 64 39 64 C40.155 61.73125 41.31 59.4625 42.5 57.125 C45.91294925 50.00526634 47.6335958 44.35647464 45.2578125 36.56640625 C42.53203588 29.70691055 38.24853339 24.84006354 31.49609375 21.73828125 C25.10133421 19.8468735 18.28355433 19.78370959 12.015625 22.10546875 C6.50054194 25.14855452 3.5272016 28.25636001 1 34 C0.34 33.67 -0.32 33.34 -1 33 C-0.67 22.11 -0.34 11.22 0 0 Z " fill="#ECEDEC" transform="translate(705,576)"/>
<path d="M0 0 C15.69994789 10.46663193 40.78149125 29.34447374 47 48 C31.49 48 15.98 48 0 48 C0 32.16 0 16.32 0 0 Z " fill="#EDEEED" transform="translate(640,336)"/>
<path d="M0 0 C0 15.51 0 31.02 0 47 C-15.18 47 -30.36 47 -46 47 C-43.33711519 36.34846078 -13.3651868 0 0 0 Z " fill="#FDFDFD" transform="translate(384,337)"/>
<path d="M0 0 C15.51 0 31.02 0 47 0 C38.48519711 17.02960579 20.70016096 32.47136983 6 44 C5.27425781 44.58007812 4.54851563 45.16015625 3.80078125 45.7578125 C2 47 2 47 0 47 C0 31.49 0 15.98 0 0 Z " fill="#FDFDFD" transform="translate(640,640)"/>
<path d="M0 0 C15.51 0 31.02 0 47 0 C47 15.84 47 31.68 47 48 C29.05777113 34.54332835 12.61780829 19.7231994 0 1 C0 0.67 0 0.34 0 0 Z " fill="#EDEEEE" transform="translate(337,640)"/>
<path d="M0 0 C15.84 0 31.68 0 48 0 C48 13.2 48 26.4 48 40 C43.32673448 38.83168362 40.86074118 36.55699089 37.375 33.4375 C36.10915276 32.32819364 34.84222271 31.2201217 33.57421875 30.11328125 C32.95853027 29.57396973 32.3428418 29.0346582 31.70849609 28.47900391 C28.82925736 25.9865163 25.84012766 23.64011749 22.8515625 21.28125 C18.11929484 17.49543587 13.46255624 13.6172357 8.79956055 9.74658203 C8.09355713 9.16247559 7.38755371 8.57836914 6.66015625 7.9765625 C6.02730713 7.45143066 5.39445801 6.92629883 4.74243164 6.38525391 C3.22210621 5.17657708 1.61603984 4.07735989 0 3 C0 2.01 0 1.02 0 0 Z " fill="#FCFDFD" transform="translate(272,512)"/>
<path d="M0 0 C18.81 0.33 37.62 0.66 57 1 C57 8.59 57 16.18 57 24 C54.2775 22.68 51.555 21.36 48.75 20 C32.92415912 12.45161277 16.69586366 6.32331885 0 1 C0 0.67 0 0.34 0 0 Z " fill="#EBECEC" transform="translate(583,255)"/>
<path d="M0 0 C0 7.59 0 15.18 0 23 C-6.94189562 23.0458379 -13.8832691 23.08568549 -20.82519531 23.10986328 C-23.18816911 23.11993924 -25.55113039 23.13360029 -27.9140625 23.15087891 C-31.30471888 23.17505724 -34.69521084 23.18646699 -38.0859375 23.1953125 C-39.14743011 23.20563507 -40.20892273 23.21595764 -41.30258179 23.22659302 C-42.28344757 23.22674408 -43.26431335 23.22689514 -44.27490234 23.22705078 C-45.57396011 23.23371262 -45.57396011 23.23371262 -46.89926147 23.24050903 C-49 23 -49 23 -51 21 C-50.11199707 20.7071814 -50.11199707 20.7071814 -49.20605469 20.40844727 C-38.2809841 16.7783347 -27.49513145 13.00031254 -17 8.25 C-16.19530273 7.88592041 -15.39060547 7.52184082 -14.56152344 7.14672852 C-10.95161376 5.47788877 -7.44358307 3.72563391 -4 1.734375 C-1 0 -1 0 0 0 Z " fill="#EAECEA" transform="translate(640,745)"/>
<path d="M0 0 C17.16 0 34.32 0 52 0 C51 2 51 2 48.140625 2.97265625 C46.84462803 3.3390575 45.547666 3.70205448 44.25 4.0625 C30.31695999 8.17297081 16.91556931 14.22912006 4.08203125 21.00390625 C2 22 2 22 0 22 C0 14.74 0 7.48 0 0 Z " fill="#FCFDFC" transform="translate(384,256)"/>
<path d="M0 0 C6.72113179 2.24037726 6.72113179 2.24037726 10.00390625 3.8828125 C10.73488525 4.24181641 11.46586426 4.60082031 12.21899414 4.97070312 C12.99235107 5.35162109 13.76570801 5.73253906 14.5625 6.125 C24.20271309 10.79649416 34.08715619 14.63020094 44.14672852 18.29492188 C46 19 46 19 48 20 C48 20.66 48 21.32 48 22 C32.16 22 16.32 22 0 22 C0 14.74 0 7.48 0 0 Z " fill="#FDFDFD" transform="translate(384,746)"/>
<path d="M0 0 C12.54 0 25.08 0 38 0 C38 5.28 38 10.56 38 16 C31.01721259 14.67874012 24.92334438 12.4992482 18.4375 9.625 C17.54353516 9.23828125 16.64957031 8.8515625 15.72851562 8.453125 C10.39722033 6.12872705 5.17857914 3.64669506 0 1 C0 0.67 0 0.34 0 0 Z " fill="#E9EBEB" transform="translate(410,704)"/>
<path d="M0 0 C7.61452378 1.92366917 14.63772521 4.32402226 21.8125 7.5 C23.16504883 8.08587891 23.16504883 8.08587891 24.54492188 8.68359375 C29.09770347 10.66771133 33.58596874 12.72367314 38 15 C38 15.33 38 15.66 38 16 C25.46 16 12.92 16 0 16 C0 10.72 0 5.44 0 0 Z " fill="#ECEDEC" transform="translate(576,304)"/>
<path d="M0 0 C0 4.95 0 9.9 0 15 C-11.55 15 -23.1 15 -35 15 C-34 12 -34 12 -30.5703125 10.09765625 C-29.09426012 9.40691682 -27.61204997 8.7292338 -26.125 8.0625 C-25.35502686 7.71058594 -24.58505371 7.35867188 -23.79174805 6.99609375 C-8.30479329 0 -8.30479329 0 0 0 Z " fill="#FAFBFA" transform="translate(448,305)"/>
<path d="M0 0 C11.88 0 23.76 0 36 0 C36 0.66 36 1.32 36 2 C9.06451613 15 9.06451613 15 0 15 C0 10.05 0 5.1 0 0 Z " fill="#FBFCFC" transform="translate(576,704)"/>
<path d="M0 0 C-0.08693141 1.79258558 -0.19510504 3.58415144 -0.3125 5.375 C-0.37050781 6.37273438 -0.42851562 7.37046875 -0.48828125 8.3984375 C-0.65714844 9.25695312 -0.82601563 10.11546875 -1 11 C-1.99 11.66 -2.98 12.32 -4 13 C-4.83819158 11.37750059 -5.6704116 9.75191503 -6.5 8.125 C-6.9640625 7.22007812 -7.428125 6.31515625 -7.90625 5.3828125 C-9 3 -9 3 -9 1 C-2.25 -1.125 -2.25 -1.125 0 0 Z " fill="#E9EFED" transform="translate(325,604)"/>
<path d="M0 0 C2.64 0 5.28 0 8 0 C8 2.64 8 5.28 8 8 C6.85073734 7.04578192 5.70569459 6.08647955 4.5625 5.125 C3.92441406 4.59132813 3.28632812 4.05765625 2.62890625 3.5078125 C1 2 1 2 0 0 Z " fill="#EAEFED" transform="translate(696,320)"/>
<path d="M0 0 C2.31 0 4.62 0 7 0 C5.71480435 2.86697492 4.42870746 4.97607712 2 7 C1.34 7 0.68 7 0 7 C0 4.69 0 2.38 0 0 Z " fill="#F5F7F6" transform="translate(320,320)"/>
<path d="M0 0 C2 3 2 3 1.625 5.1875 C1.41875 5.785625 1.2125 6.38375 1 7 C-1.31 7 -3.62 7 -6 7 C-4.02 4.69 -2.04 2.38 0 0 Z " fill="#E1EAE3" transform="translate(702,697)"/>
<path d="M0 0 C7.42857143 -0.28571429 7.42857143 -0.28571429 11 2 C11 2.66 11 3.32 11 4 C7.37 3.01 3.74 2.02 0 1 C0 0.67 0 0.34 0 0 Z " fill="#D7E2DE" transform="translate(583,255)"/>
<path d="M0 0 C-2.35968744 2.09749995 -3.54616994 2.96905704 -6.75 3.1875 C-7.86375 3.0946875 -7.86375 3.0946875 -9 3 C-9 2.34 -9 1.68 -9 1 C-2.25 -1.125 -2.25 -1.125 0 0 Z " fill="#CEE0DA" transform="translate(325,604)"/>
</svg>
